<svg width="20" height="20" viewBox="0 0 20 20" fill="none" xmlns="http://www.w3.org/2000/svg">
<path d="M10 0.833374C5.03079 0.833374 0.833374 5.03171 0.833374 10C0.833374 14.9684 5.03079 19.1667 10 19.1667C14.9693 19.1667 19.1667 14.9684 19.1667 10C19.1667 5.03171 14.9693 0.833374 10 0.833374ZM10 12.75C10.9094 12.75 11.6959 12.5071 12.102 12.101L13.3981 13.3981C12.366 14.4294 10.826 14.5834 10 14.5834C7.47279 14.5834 5.41671 12.5273 5.41671 10C5.41671 7.47279 7.47279 5.41671 10 5.41671C10.826 5.41671 12.3669 5.57071 13.3981 6.60196L12.102 7.89812C11.6968 7.49204 10.9103 7.25004 10 7.25004C8.50954 7.25004 7.25004 8.50954 7.25004 10C7.25004 11.4905 8.50954 12.75 10 12.75Z" fill="#928A97"/>
</svg>
